<svg xmlns="http://www.w3.org/2000/svg" width="200" height="200" viewBox="0 0 100 100"><path d="M43.4 57c0-2.4-1.4-4.4-3.2-4.4-1.8 0-3.3 2-3.3 4.5s1.5 4.5 3.3 4.5c1.8 0 3.2-2 3.2-4.5M59.1 52.6c-1.8 0-3.2 2-3.2 4.5s1.4 4.5 3.2 4.5c1.8 0 3.2-2 3.2-4.5s-1.4-4.5-3.2-4.5M47.1 66.2c.5 0 .9-.1 1.2-.4.3-.4.8-.6 1.3-.6s1 .2 1.4.6a1.6 1.6 0 0 0 2.3 0c.3-.3.4-.7.4-1.2s-.1-.8-.4-1a5 5 0 0 0-7.3 0 1.6 1.6 0 0 0 0 2.2c.3.3.7.4 1.1.4M50.3 72.4a3 3 0 0 1 1.8.7l.2.1 2.1 1.5a6.3 6.3 0 0 1-8.6.2l1.1-.8c1-.8 2.3-1.7 3.4-1.7m8 .2c-.2 0-.6 0-.9.2-.5 0-2.1-1.1-3.3-2l-.2-.1a6 6 0 0 0-3.6-1.3c-2.1 0-4 1.4-5.2 2.3l-1 .8-1.4.6a2 2 0 0 0-3.7 2 4 4 0 0 0 2.6 2c.6.2 1.4.2 2.1 0a9.3 9.3 0 0 0 12.7-.2c1 .3 2 .2 3-.4a2 2 0 0 0-1-3.9"/><path d="M88 56c0 2.5-1.6 4.7-4 5.5l-1.2.4-.3 1.1c-3.7 14-17.1 24-31.9 24a32.5 32.5 0 0 1-31-23.6l-.5-1.5-1.6-.1a5.8 5.8 0 0 1-.2-11.7L19 50l.4-1.5a31.9 31.9 0 0 1 31.3-23c15.3 0 28.8 9.9 32.1 23.4L83 50l1.1.4c2.3.9 3.9 3 3.9 5.5m-1.3-9.2c-2-7.1-6.7-13.6-13.2-18.2a39.5 39.5 0 0 0-17.8-7 9 9 0 0 0 1-8.1 8.2 8.2 0 0 0-4.3-4.3c-1.9-.8-4-1-5.9-.2-2 .8-3.7 2.3-4.5 4a5 5 0 0 0 0 4 5 5 0 0 0 4.8 3.3c1.7 0 3.3-.8 4.3-2 .6-.9.9-1.9.7-2.9a2 2 0 0 0-2.1-1.5l-.8.1a2.2 2.2 0 0 0-1.4 2.8l-.8-.1c-.4-.2-.6-.4-.7-.7-.4-1.2.1-2.7 1.2-3.4.5-.3 1-.4 1.7-.4 1.5 0 3.4.9 4 2.6.7 1.8-.3 4-2.8 6.3H50l-.6.1c-7.8.3-15.2 2.9-21.4 7.5a34.5 34.5 0 0 0-12.5 17.3 10.3 10.3 0 0 0 .3 20.1c4.9 15 19.2 25.5 35 25.5a38 38 0 0 0 35.8-26.2 10.3 10.3 0 0 0 .3-18.6"/></svg>